# AST/ASF file generated using VICON BodyLanguage
# -----------------------------------------------
:version 1.10
:name VICON
:units
  mass 1.0
  length 0.45
  angle deg
:documentation
   .ast/.asf automatically generated from VICON data using
   VICON BodyBuilder and BodyLanguage model FoxedUp or BRILLIANT.MOD
:root
   order TX TY TZ RX RY RZ
   axis XYZ
   position 0 0 0  
   orientation 0 0 0 
:bonedata
  begin
     id 1 
     name lhipjoint
     direction 0.610259 -0.730986 0.305356 
     length 2.50941 
     axis 0 0 0  XYZ
  end
  begin
     id 2 
     name lfemur
     direction 0.34202 -0.939693 0  
     length 7.48822  
     axis 0 0 20  XYZ
    dof rx ry rz
    limits (-160.0 20.0)
           (-70.0 70.0)
           (-60.0 70.0)
  end
  begin
     id 3 
     name ltibia
     direction 0.34202 -0.939693 0   
     length 7.60141   
     axis 0 0 20   XYZ
    dof rx
    limits (-10.0 170.0)
  end
  begin
     id 4 
     name lfoot
     direction 0.0673488 -0.185039 0.980421   
     length 2.04049   
     axis -90 7.62852e-016 20   XYZ
    dof rx rz
    limits (-45.0 90.0)
           (-70.0 20.0)
  end
  begin
     id 5 
     name ltoes
     direction 1.5356e-011 -4.21729e-011 1   
     length 1.02897   
     axis -90 7.62852e-016 20   XYZ
    dof rx
    limits (-90.0 20.0)
  end
  begin
     id 6 
     name rhipjoint
     direction -0.57612 -0.754205 0.315056   
     length 2.43216  
     axis 0 0 0  XYZ 
  end
  begin
     id 7 
     name rfemur
     direction -0.34202 -0.939693 0   
     length 7.42799   
     axis 0 0 -20   XYZ
    dof rx ry rz
    limits (-160.0 20.0)
           (-70.0 70.0)
           (-70.0 60.0)
  end
  begin
     id 8 
     name rtibia
     direction -0.34202 -0.939693 0   
     length 7.69484   
     axis 0 0 -20   XYZ
    dof rx
    limits (-10.0 170.0)
 end
 begin
     id 9 
     name rfoot
     direction -0.111837 -0.30727 0.945028   
     length 2.15769  
     axis -90 -7.62852e-016 -20   XYZ
    dof rx rz
    limits (-45.0 90.0)
           (-20.0 70.0)
  end
  begin
     id 10 
     name rtoes
     direction -1.53539e-011 -4.21878e-011 1   
     length 1.07391   
     axis -90 -7.62852e-016 -20   XYZ
    dof rx
    limits (-90.0 20.0)
  end
  begin
     id 11 
     name lowerback
     direction 0.00552624 0.990109 -0.140195   
     length 2.12403   
     axis 0 0 0   XYZ
    dof rx ry rz
    limits (-20.0 45.0)
           (-30.0 30.0)
           (-30.0 30.0)
  end
  begin
     id 12 
     name upperback
     direction 0.00361898 0.999976 -0.00584723   
     length 2.13232   
     axis 0 0 0   XYZ
    dof rx ry rz
    limits (-20.0 45.0)
           (-30.0 30.0)
           (-30.0 30.0)
  end
  begin
     id 13 
     name thorax
     direction -0.000331275 0.998253 0.0590847   
     length 2.17688   
     axis 0 0 0   XYZ
    dof rx ry rz
    limits (-20.0 45.0)
           (-30.0 30.0)
           (-30.0 30.0)
  end
  begin
     id 14 
     name lowerneck
     direction -0.0561561 0.979832 0.19177   
     length 1.64159   
     axis 0 0 0   XYZ
    dof rx ry rz
    limits (-20.0 45.0)
           (-30.0 30.0)
           (-30.0 30.0)
  end
  begin
     id 15 
     name upperneck
     direction 0.0827153 0.979385 -0.184293   
     length 1.68939   
     axis 0 0 0   XYZ
    dof rx ry rz
    limits (-20.0 45.0)
           (-30.0 30.0)
           (-30.0 30.0)
  end
  begin
     id 16
     name head
     direction 0.0278583 0.995936 -0.0856488  
     length 1.70207  
     axis 0 0 0   XYZ
    dof rx ry rz
    limits (-20.0 45.0)
           (-30.0 30.0)
           (-30.0 30.0)
  end
  begin
     id 17 
     name lclavicle
     direction 0.950993 0.301131 -0.0702275  
     length 3.41652  
     axis 0 0 0   XYZ
    dof ry rz
    limits (-20.0 10.0)
           (0.0 20.0)
  end
  begin
     id 18 
     name lhumerus
     direction 1 -4.48981e-011 -3.9662e-029   
     length 5.32955   
     axis 180 -30 -90   XYZ
    dof rx ry rz
    limits (-60.0 90.0)
           (-90.0 90.0)
           (-90.0 90.0)
  end
  begin
     id 19
     name lradius
     direction 1 -4.48925e-011 -9.0549e-027   
     length 3.69232   
     axis 180 -30 -90   XYZ
    dof rx
    limits (-10.0 170.0)
  end
  begin
     id 20
     name lwrist
     direction 1 -4.49007e-011 -1.49005e-026   
     length 1.84616   
     axis 9.0955e-015 90 90   XYZ
    dof ry
    limits (-180.0 0.0)
 end
  begin
     id 21 
     name lhand
     direction 1 -4.49016e-011 -2.98023e-026   
     length 0.536598   
     axis 1.90115e-014 90 90   XYZ
    dof rx rz
    limits (-90.0 90.0)
           (-45.0 45.0)
  end
  begin
     id 22 
     name lfingers
     direction 1 -4.48924e-011 -5.9578e-026   
     length 0.432619   
     axis 3.80223e-014 90 90   XYZ
    dof rx
    limits (0.0 90.0)
  end
  begin
     id 23
     name lthumb
     direction 0.707107 -6.34947e-011 0.707107   
     length 0.621157   
     axis -90 45 -3.84942e-014   XYZ
    dof rx rz
    limits (-45.0 45.0)
           (-45.0 45.0)
  end
  begin
     id 24 
     name rclavicle
     direction -0.955495 0.276497 -0.102848   
     length 3.36357  
     axis 0 0 0   XYZ 
    dof ry rz
    limits (-10.0 20.0)
           (-20.0 0.0)
  end
  begin
     id 25 
     name rhumerus
     direction -1 -4.48961e-011 3.30983e-027  
     length 5.23431   
     axis 180 30 90   XYZ
    dof rx ry rz
    limits (-90.0 60.0)
           (-90.0 90.0)
           (-90.0 90.0)
  end
  begin
     id 26 
     name rradius
     direction -1 -4.48965e-011 -6.63263e-027   
     length 3.55301   
     axis 180 30 90   XYZ
    dof rx
    limits (-10.0 170.0)
  end
  begin
     id 27 
     name rwrist
     direction -1 -4.48942e-011 -1.48958e-026   
     length 1.77651   
     axis 9.0955e-015 -90 -90   XYZ
    dof ry
    limits (-180.0 0.0)
  end
  begin
     id 28
     name rhand
     direction -1 -4.48977e-011 -2.97966e-026   
     length 0.772522   
     axis 1.90115e-014 -90 -90   XYZ
    dof rx rz
    limits (-90.0 90.0)
           (-45.0 45.0)
  end
  begin
     id 29
     name rfingers
     direction -1 -4.49135e-011 -5.96389e-026   
     length 0.622827   
     axis 3.80223e-014 -90 -90   XYZ
    dof rx
    limits (0.0 90.0)
  end
  begin
     id 30
     name rthumb
     direction -0.707107 -6.34969e-011 0.707107   
     length 0.894259   
     axis -90 -45 3.84942e-014   XYZ
    dof rx rz
    limits (-45.0 45.0)
           (-45.0 45.0)
  end
:hierarchy
  begin
    root lhipjoint rhipjoint lowerback
    lhipjoint lfemur
    lfemur ltibia
    ltibia lfoot
    lfoot ltoes
    rhipjoint rfemur
    rfemur rtibia
    rtibia rfoot
    rfoot rtoes
    lowerback upperback
    upperback thorax
    thorax lowerneck lclavicle rclavicle
    lowerneck upperneck
    upperneck head
    lclavicle lhumerus
    lhumerus lradius
    lradius lwrist
    lwrist lhand lthumb
    lhand lfingers
    rclavicle rhumerus
    rhumerus rradius
    rradius rwrist
    rwrist rhand rthumb
    rhand rfingers
  end

#!OML:ASF F:\VICON\USERDATA\INSTALL\rory3\rory3.ASF
:FULLY-SPECIFIED
:DEGREES
1
root 15.352 17.6198 -12.4482 -64.4343 -85.1875 64.2251
lowerback 12.2116 2.71373 0.0239202
upperback -0.344609 3.55753 -0.517643
thorax -7.18284 1.71558 -1.2054
lowerneck -24.8295 0.0469852 -8.68823
upperneck 29.0818 1.61038 5.3847
head 13.9399 0.392772 3.93453
rclavicle 6.36111e-015 3.18055e-015
rhumerus -35.3369 -16.0498 -69.3833
rradius 33.8541
rwrist 4.07645
rhand -16.4371 7.83926
rfingers 7.12502
rthumb 9.7785 -21.9137
lclavicle 6.36111e-015 3.18055e-015
lhumerus -35.4359 18.5048 74.4194
lradius 26.6926
lwrist -6.11732
lhand -21.9634 16.9825
lfingers 7.12502
lthumb 4.44412 46.9158
rfemur 1.1535 9.79218 2.16623
rtibia 25.9576
rfoot -14.5193 -4.46072
rtoes -19.8013
lfemur -2.69749 -5.85773 -9.76566
ltibia 19.0189
lfoot -6.5211 -1.41952
ltoes -37.2661
2
root 15.3404 17.6284 -12.2903 -66.573 -84.6512 66.3676
lowerback 12.1911 2.73144 -0.343549
upperback -0.367484 3.5228 -0.590506
thorax -7.2141 1.7104 -1.06996
lowerneck -24.894 0.0395924 -8.93535
upperneck 29.341 1.64718 5.54283
head 14.0572 0.392099 4.06007
rclavicle 4.15957e-014 -1.59028e-014
rhumerus -35.5865 -16.7481 -68.7154
rradius 33.746
rwrist 4.37308
rhand -16.3173 7.88444
rfingers 7.12502
rthumb 9.89402 -21.8631
lclavicle 4.15957e-014 -1.59028e-014
lhumerus -35.3175 18.3324 74.7783
lradius 26.5207
lwrist -5.98691
lhand -22.5155 15.553
lfingers 7.12502
lthumb 3.91093 45.4969
rfemur 1.14054 10.1132 1.04776
rtibia 26.1406
rfoot -13.7575 -4.44848
rtoes -17.9258
lfemur -2.50852 -5.33976 -11.15
ltibia 18.9593
lfoot -6.89317 -0.737377
ltoes -36.1056
3
root 15.3286 17.6374 -12.1349 -66.9345 -84.4225 66.6816
lowerback 12.1689 2.71224 -0.272566
upperback -0.315005 3.50096 -0.669527
thorax -7.13628 1.69604 -1.18581
lowerneck -25.2031 0.0657272 -8.60699
upperneck 29.62 1.70117 5.17047
head 14.2491 0.387896 3.87944
rclavicle -5.91384e-015 1.82882e-014
rhumerus -35.7632 -17.4952 -68.3264
rradius 33.6954
rwrist 4.42236
rhand -16.3155 7.86232
rfingers 7.12502
rthumb 9.89581 -21.8851
lclavicle -5.91384e-015 1.82882e-014
lhumerus -35.0155 18.072 75.1401
lradius 26.612
lwrist -5.96744
lhand -22.5273 16.8025
lfingers 7.12502
lthumb 3.89961 46.7466
rfemur 1.21161 10.6115 0.362673
rtibia 26.2985
rfoot -13.1635 -4.44586
rtoes -14.2232
lfemur -2.43052 -4.71712 -12.1283
ltibia 19.073
lfoot -7.33632 -0.139929
ltoes -34.3609
4
root 15.3235 17.6525 -11.9835 -63.8159 -84.5697 63.6284
lowerback 12.1364 2.59583 0.226218
upperback -0.345394 3.42527 -0.588822
thorax -7.1267 1.64335 -1.36586
lowerneck -25.2488 0.0782808 -8.43942
upperneck 29.6303 1.73878 4.92303
head 14.2663 0.38653 3.75718
rclavicle 2.57426e-014 1.59028e-015
rhumerus -35.9175 -18.155 -67.9678
rradius 33.6105
rwrist 4.40012
rhand -16.5702 7.81378
rfingers 7.12502
rthumb 9.65008 -21.9452
lclavicle 2.57426e-014 1.59028e-015
lhumerus -34.8391 17.543 75.6426
lradius 27.2625
lwrist -6.2258
lhand -21.6927 21.4599
lfingers 7.12502
lthumb 4.70548 51.3876
rfemur 1.10717 11.09 0.338179
rtibia 26.5339
rfoot -12.3373 -5.0441
rtoes -11.8578
lfemur -2.48365 -4.22579 -12.5784
ltibia 19.0053
lfoot -7.50471 0.569565
ltoes -34.6375
5
root 15.3184 17.6693 -11.838 -61.3185 -84.5344 61.2131
lowerback 12.0939 2.48857 0.461617
upperback -0.404375 3.32196 -0.534326
thorax -7.15746 1.58559 -1.42176
lowerneck -25.1975 0.0935065 -8.36524
upperneck 29.6142 1.78561 4.74439
head 14.2486 0.388735 3.67772
rclavicle 1.05356e-014 0
rhumerus -36.2032 -18.8729 -67.5514
rradius 33.6267
rwrist 4.4694
rhand -16.7453 7.85019
rfingers 7.12502
rthumb 9.48108 -21.9165
lclavicle 1.05356e-014 0
lhumerus -34.7894 17.2653 75.864
lradius 27.4567
lwrist -6.33139
lhand -21.6111 21.6945
lfingers 7.12502
lthumb 4.78431 51.6205
rfemur 0.915606 11.5497 0.204114
rtibia 26.8855
rfoot -11.3037 -6.02701
rtoes -11.254
lfemur -2.41929 -4.13352 -13.2631
ltibia 18.7917
lfoot -7.47844 1.57786
ltoes -35.6185
6
root 15.3056 17.678 -11.6935 -62.9017 -84.082 62.7349
lowerback 12.0801 2.5029 0.122346
upperback -0.367228 3.28444 -0.629377
thorax -7.12449 1.57793 -1.32308
lowerneck -25.2706 0.101429 -8.2067
upperneck 29.7062 1.80392 4.54505
head 14.3084 0.381506 3.57703
rclavicle 1.9133e-014 1.59028e-015
rhumerus -36.4826 -19.5818 -67.1703
rradius 33.6536
rwrist 4.2443
rhand -16.7169 7.74844
rfingers 7.12502
rthumb 9.50849 -22.017
lclavicle 1.9133e-014 1.59028e-015
lhumerus -34.6651 16.8718 76.1752
lradius 27.6393
lwrist -6.19329
lhand -21.7524 21.9761
lfingers 7.12502
lthumb 4.64783 51.9051
rfemur 0.808856 12.0136 -0.571825
rtibia 27.3576
rfoot -10.5023 -6.74313
rtoes -9.80233
lfemur -2.01878 -4.34564 -14.5438
ltibia 18.4466
lfoot -7.46888 2.59642
ltoes -34.4628
7
root 15.2974 17.6918 -11.5483 -63.0048 -83.6575 62.8162
lowerback 12.0434 2.44199 -0.163683
upperback -0.321205 3.1604 -0.650149
thorax -7.07145 1.52764 -1.15908
lowerneck -25.3447 0.137226 -8.25098
upperneck 29.7678 1.89997 4.49445
head 14.3437 0.407545 3.58527
rclavicle 3.45885e-014 -1.82882e-014
rhumerus -36.6253 -20.0167 -66.8718
rradius 33.6321
rwrist 3.96879
rhand -16.6446 7.65743
rfingers 7.12502
rthumb 9.57826 -22.1048
lclavicle 3.45885e-014 -1.82882e-014
lhumerus -34.5098 16.7978 76.4195
lradius 27.7721
lwrist -6.35555
lhand -21.6905 22.4873
lfingers 7.12502
lthumb 4.70759 52.415
rfemur 0.663844 12.2584 -1.20987
rtibia 27.8912
rfoot -9.6947 -7.55948
rtoes -8.52249
lfemur -1.66764 -4.56305 -15.6613
ltibia 17.9905
lfoot -7.40922 3.28554
ltoes -32.7271
8
root 15.2926 17.7116 -11.405 -60.9668 -83.467 60.8634
lowerback 11.9321 2.29574 -0.13207
upperback -0.324554 2.97602 -0.591013
thorax -7.01624 1.43862 -1.07659
lowerneck -25.3969 0.17999 -8.45089
upperneck 29.8538 2.01067 4.61383
head 14.3788 0.445573 3.69332
rclavicle 1.47598e-014 -4.77083e-015
rhumerus -36.7663 -20.6159 -66.5414
rradius 33.5537
rwrist 4.20841
rhand -16.5564 7.76756
rfingers 7.12502
rthumb 9.66334 -21.9908
lclavicle 1.47598e-014 -4.77083e-015
lhumerus -34.3982 16.7061 76.6273
lradius 27.9222
lwrist -6.49747
lhand -21.4834 22.5601
lfingers 7.12502
lthumb 4.90759 52.4833
rfemur 0.425169 12.5033 -1.4294
rtibia 28.4185
rfoot -8.64666 -8.67012
rtoes -6.68641
lfemur -1.51756 -4.27844 -16.3211
ltibia 17.4693
lfoot -7.47026 3.3398
ltoes -32.5262
9
root 15.2889 17.7261 -11.2676 -58.8165 -83.4173 58.7974
lowerback 11.8243 2.18263 0.0373007
upperback -0.309475 2.8542 -0.536476
thorax -6.93526 1.37525 -1.08744
lowerneck -25.4378 0.217002 -8.33622
upperneck 29.7635 2.08292 4.44355
head 14.3463 0.469172 3.61444
rclavicle 3.00165e-014 1.35174e-014
rhumerus -36.9074 -21.2813 -66.2702
rradius 33.5084
rwrist 4.44521
rhand -16.3837 7.77464
rfingers 7.12502
rthumb 9.82999 -21.9759
lclavicle 3.00165e-014 1.35174e-014
lhumerus -34.1919 16.3812 76.8886
lradius 28.0934
lwrist -6.43867
lhand -20.7223 22.2389
lfingers 7.12502
lthumb 5.64245 52.1437
rfemur 0.159542 12.9874 -1.4089
rtibia 28.9283
rfoot -7.60994 -10.1306
rtoes -3.93147
lfemur -1.38728 -3.969 -16.7531
ltibia 16.968
lfoot -7.64221 3.18095
ltoes -32.6124
10
root 15.2835 17.7426 -11.1342 -57.9143 -83.2971 57.8946
lowerback 11.7955 2.16325 0.0755697
upperback -0.259057 2.83367 -0.530096
thorax -6.86403 1.3645 -1.09583
lowerneck -25.4638 0.218579 -8.11934
upperneck 29.644 2.10667 4.13412
head 14.3068 0.464266 3.45086
rclavicle 8.69683e-015 -8.74653e-015
rhumerus -37.0338 -21.5266 -66.1838
rradius 33.5144
rwrist 4.10974
rhand -16.4348 7.61511
rfingers 7.12502
rthumb 9.78066 -22.1378
lclavicle 8.69683e-015 -8.74653e-015
lhumerus -33.8851 15.7708 77.2514
lradius 28.2312
lwrist -6.26356
lhand -20.3757 21.8652
lfingers 7.12502
lthumb 5.97709 51.7609
rfemur -0.0731393 13.538 -1.44878
rtibia 29.4687
rfoot -6.62526 -11.7083
rtoes -0.417182
lfemur -1.09216 -4.06431 -17.3084
ltibia 16.4718
lfoot -7.73065 3.20901
ltoes -31.157
11
root 15.2786 17.7605 -11.0075 -57.1246 -83.2353 57.0812
lowerback 11.8013 2.17804 0.105459
upperback -0.211829 2.85981 -0.487941
thorax -6.81733 1.37724 -1.07165
lowerneck -25.614 0.161083 -8.17465
upperneck 29.7589 2.07749 4.08846
head 14.3926 0.433902 3.44317
rclavicle -3.27995e-014 -9.54166e-015
rhumerus -37.2004 -21.7399 -66.106
rradius 33.4992
rwrist 3.87727
rhand -16.9372 7.65149
rfingers 7.12502
rthumb 9.29594 -22.1236
lclavicle -3.27995e-014 -9.54166e-015
lhumerus -33.579 14.8719 77.7366
lradius 28.4269
lwrist -5.79395
lhand -20.8717 22.0183
lfingers 7.12502
lthumb 5.49826 51.927
rfemur -0.33455 14.0948 -1.34891
rtibia 30.0908
rfoot -5.47315 -13.3969
rtoes 3.30149
lfemur -0.746629 -4.10759 -17.7552
ltibia 15.9272
lfoot -7.77576 3.09785
ltoes -30.1378
12
root 15.2769 17.772 -10.8886 -55.7608 -83.2732 55.7573
lowerback 11.7363 2.16542 0.124405
upperback -0.184093 2.85737 -0.323634
thorax -6.75885 1.37902 -0.905434
lowerneck -25.7923 0.156399 -8.25451
upperneck 29.9553 2.16185 3.97405
head 14.5131 0.434477 3.43567
rclavicle 2.23633e-014 7.15625e-015
rhumerus -37.3008 -21.7853 -65.9676
rradius 33.522
rwrist 3.71108
rhand -17.1062 7.76428
rfingers 7.12502
rthumb 9.13287 -22.018
lclavicle 2.23633e-014 7.15625e-015
lhumerus -33.3932 14.1107 78.2602
lradius 28.7162
lwrist -5.13732
lhand -21.5798 22.0292
lfingers 7.12502
lthumb 4.81449 51.9545
rfemur -0.767573 14.4831 -1.10129
rtibia 30.8489
rfoot -4.4873 -15.0572
rtoes 7.56319
lfemur -0.515034 -3.81472 -17.9909
ltibia 15.3243
lfoot -7.82303 2.72739
ltoes -30.0433
13
root 15.2778 17.7817 -10.7708 -55.1484 -83.2506 55.1674
lowerback 11.7539 2.15339 -0.0244495
upperback -0.187628 2.83302 -0.151077
thorax -6.78916 1.37504 -0.63715
lowerneck -25.7531 0.172746 -8.48083
upperneck 29.9793 2.25152 4.05374
head 14.504 0.456542 3.52369
rclavicle -1.87852e-014 1.59028e-015
rhumerus -37.3678 -21.5541 -65.8951
rradius 33.5181
rwrist 3.42504
rhand -16.87 7.80686
rfingers 7.12502
rthumb 9.36079 -21.9653
lclavicle -1.87852e-014 1.59028e-015
lhumerus -33.3088 13.7408 78.6643
lradius 29.095
lwrist -4.75657
lhand -21.9637 21.9956
lfingers 7.12502
lthumb 4.44382 51.9289
rfemur -1.30173 14.6858 -0.976985
rtibia 31.7709
rfoot -4.07144 -16.4115
rtoes 12.2387
lfemur -0.237003 -3.43721 -18.2969
ltibia 14.6924
lfoot -7.98935 2.17778
ltoes -29.7911
